<?xml version="1.0" standalone="no"?>
<!DOCTYPE svg PUBLIC "-//W3C//DTD SVG 20010904//EN"
 "http://www.w3.org/TR/2001/REC-SVG-20010904/DTD/svg10.dtd">
<svg version="1.0" xmlns="http://www.w3.org/2000/svg"
 width="700.000000pt" height="700.000000pt" viewBox="0 0 700.000000 700.000000"
 preserveAspectRatio="xMidYMid meet">
<metadata>
Created by potrace 1.11, written by Peter Selinger 2001-2013
</metadata>
<g transform="translate(0.000000,700.000000) scale(0.100000,-0.100000)"
fill="#000000" stroke="none">
<path d="M5450 6936 c-19 -13 -88 -57 -152 -99 -335 -220 -600 -484 -814 -813
-44 -67 -87 -135 -96 -152 l-17 -31 -68 20 c-73 21 -322 74 -388 83 -37 5
-103 12 -200 22 -48 5 -398 5 -440 0 -16 -2 -64 -7 -105 -11 -41 -4 -82 -8
-90 -10 -8 -1 -49 -8 -90 -15 -270 -44 -562 -141 -836 -277 l-71 -35 -114 55
c-206 100 -364 141 -618 161 -61 5 -69 3 -230 -65 -91 -39 -169 -74 -173 -78
-4 -4 35 -33 87 -65 l95 -58 123 7 c197 11 336 4 422 -22 18 -5 155 -82 155
-87 0 -2 -21 -18 -48 -36 -184 -132 -442 -371 -579 -540 -321 -396 -533 -855
-622 -1345 -34 -192 -45 -316 -45 -530 -1 -210 13 -369 44 -530 5 -27 12 -61
14 -75 12 -62 19 -90 37 -160 11 -41 26 -91 33 -110 8 -19 14 -39 15 -45 2
-16 11 -48 21 -70 4 -11 27 -67 50 -125 57 -141 93 -215 163 -340 56 -98 167
-271 191 -296 6 -6 18 -22 26 -34 8 -13 26 -37 40 -54 14 -17 29 -37 35 -44
67 -90 316 -337 419 -417 21 -16 50 -40 65 -53 14 -13 35 -28 46 -33 11 -5 40
-25 65 -43 130 -100 422 -257 615 -331 139 -54 342 -116 425 -130 19 -3 51
-10 70 -15 136 -35 343 -55 580 -55 241 0 359 10 545 47 55 10 114 22 130 25
17 3 83 20 147 39 765 220 1421 751 1796 1454 161 304 271 640 317 975 3 22 8
49 10 60 22 102 23 582 1 690 -2 11 -7 47 -10 80 -4 33 -14 92 -21 130 -8 39
-16 81 -19 95 -9 53 -68 261 -95 336 -120 333 -260 585 -487 879 -88 113 -277
306 -419 426 -86 71 -325 240 -369 260 -12 5 -34 18 -51 29 -16 11 -95 52
-175 91 -80 40 -147 73 -149 75 -2 2 21 32 51 66 104 118 194 204 313 297 44
34 87 68 95 74 101 80 357 219 575 312 55 24 189 72 238 85 52 14 52 14 34 84
l-13 49 -209 123 c-116 68 -217 123 -225 123 -8 0 -31 -11 -50 -23z m-1820
-1611 c136 -7 189 -12 250 -25 25 -5 61 -12 80 -15 59 -10 120 -27 120 -34 0
-4 -13 -40 -29 -81 -15 -41 -38 -104 -50 -140 -12 -36 -26 -74 -31 -85 -37
-89 -138 -497 -164 -670 -10 -64 -45 -262 -51 -287 -2 -13 -7 -36 -9 -52 -3
-16 -15 -61 -26 -100 l-22 -71 -106 0 c-152 0 -310 -13 -430 -35 -52 -9 -49
-14 -88 140 -128 509 -265 871 -439 1160 -37 61 -65 113 -64 114 27 21 339
119 454 142 118 24 191 33 335 40 63 4 116 8 118 9 2 2 11 1 20 -1 9 -1 69 -6
132 -9z m822 -201 c53 -24 120 -57 148 -74 28 -16 53 -30 55 -30 10 0 156 -98
156 -105 0 -3 -66 -76 -148 -162 -81 -86 -164 -173 -183 -193 -19 -20 -102
-108 -185 -195 -82 -87 -167 -176 -189 -199 l-39 -40 8 88 c4 49 8 98 10 110
4 27 23 150 30 196 8 56 15 94 21 110 3 8 8 33 11 55 10 74 74 285 145 474 11
29 28 26 160 -35z m-2105 -160 c149 -233 239 -421 328 -688 37 -109 101 -350
121 -451 20 -101 26 -132 30 -146 4 -14 -13 -21 -88 -39 -51 -13 -149 -40
-217 -61 l-125 -38 -60 21 c-45 16 -87 21 -161 22 -90 1 -106 -2 -157 -27 -77
-38 -130 -95 -177 -192 -94 -191 -93 -423 0 -583 47 -79 189 -218 275 -268 85
-50 178 -82 263 -92 l64 -7 -89 -94 c-49 -51 -109 -115 -134 -141 -234 -247
-350 -369 -375 -395 -16 -17 -65 -67 -108 -112 l-78 -81 -38 51 c-222 301
-380 692 -426 1055 -3 23 -8 61 -11 85 -16 116 -11 370 10 542 70 569 390
1133 849 1498 110 88 258 186 271 181 6 -3 21 -21 33 -40z m3023 -590 c129
-173 267 -441 325 -629 8 -27 19 -63 24 -80 10 -32 31 -111 36 -135 2 -8 8
-35 13 -60 10 -40 20 -109 37 -250 8 -63 8 -376 1 -430 -45 -306 -72 -418
-154 -630 -172 -449 -518 -862 -943 -1125 -80 -50 -325 -175 -343 -175 -3 0
-13 17 -23 37 -9 20 -65 102 -123 182 -58 80 -125 174 -149 209 -113 167 -142
319 -134 697 3 121 6 229 6 240 0 22 36 52 179 147 l89 60 127 3 c98 2 140 7
185 23 224 81 433 254 509 422 49 108 59 148 63 265 3 97 -11 169 -47 244 -59
123 -194 205 -380 231 -40 6 -76 14 -80 18 -3 4 26 41 65 83 107 114 348 368
463 488 56 58 125 132 155 164 29 31 54 57 55 57 2 0 22 -25 44 -56z m-2402
-2505 c18 -62 51 -232 59 -304 4 -33 7 -141 7 -240 0 -157 -3 -219 -19 -360
-4 -38 -36 -209 -40 -213 -4 -5 -184 47 -275 80 -116 41 -347 155 -447 220
l-83 54 41 45 c34 36 177 186 394 415 233 244 321 337 324 345 7 21 26 0 39
-42z"/>
</g>
</svg>
